<?xml version="1.0" encoding="UTF-8"?>
<svg width="20px" height="20px" viewBox="0 0 20 20" version="1.1" xmlns="http://www.w3.org/2000/svg" xmlns:xlink="http://www.w3.org/1999/xlink">
    <!-- Generator: sketchtool 51.2 (57519) - http://www.bohemiancoding.com/sketch -->
    <title>8912D031-CD4C-442D-B4B9-690F9C891101-591-000000BD86DA4EC9</title>
    <desc>Created with sketchtool.</desc>
    <defs></defs>
    <g id="Page-1" stroke="none" stroke-width="1" fill="none" fill-rule="evenodd">
        <g id="Speaker" transform="translate(-96.000000, -727.000000)">
            <g id="Agenda-Item-Copy" transform="translate(24.000000, 643.000000)">
                <g id="Group-8">
                    <g id="Event-Types-/-Absinthe" transform="translate(72.000000, 84.000000)">
                        <g id="Absinthe">
                            <circle id="Oval-4" fill="#4B285B" cx="10" cy="10" r="10"></circle>
                            <g id="Group" transform="translate(2.600000, 0.800000)">
                                <path d="M4.8560686,10.95 L7.9921746,10.95 C8.53072499,11.1042649 8.80000019,11.4980149 8.80000019,12.13125 C8.80000019,12.7644851 8.53072499,13.1582351 7.9921746,13.3125 L5.01503702,13.3125 C4.62902502,14.3019927 3.69411628,15 2.60209103,15 C1.16499583,15 0,13.7911688 0,12.3 C0,10.8088312 1.16499583,9.6 2.60209103,9.6 C3.56523206,9.6 4.40615481,10.1429682 4.8560686,10.95 Z" id="Combined-Shape" fill="#FFFFFF"></path>
                                <path d="M4.49838435,11.8004158 L6.64435242,11.8004158 C6.88145081,11.8680395 7,12.0406443 7,12.3182302 C7,12.5958161 6.88145081,12.7684209 6.64435242,12.8360446 L4.55764284,12.8360446 C4.29909339,13.740004 3.48543509,14.4 2.52170181,14.4 C1.34991826,14.4 0.4,13.4242863 0.4,12.2206824 C0.4,11.0812317 3.75432043,10.8312329 4.49838435,11.8004158 Z" id="Combined-Shape" fill="#4B285B"></path>
                                <path d="M11.8560686,9.35 L14.9921746,9.35 C15.530725,9.50426489 15.8000002,9.89801489 15.8000002,10.53125 C15.8000002,11.1644851 15.530725,11.5582351 14.9921746,11.7125 L12.015037,11.7125 C11.629025,12.7019927 10.6941163,13.4 9.60209103,13.4 C8.16499583,13.4 7,12.1911688 7,10.7 C7,9.20883118 8.16499583,8 9.60209103,8 C10.5652321,8 11.4061548,8.54296815 11.8560686,9.35 Z" id="Combined-Shape" fill="#FFFFFF" transform="translate(11.400000, 10.700000) rotate(-120.000000) translate(-11.400000, -10.700000) "></path>
                                <path d="M12.3,14.4 C13.5702549,14.4 14.6,13.4852684 14.6,12.3568898 C14.6,11.0087823 10,11.1553955 10,12.3568898 C10,13.4852684 11.0297451,14.4 12.3,14.4 Z" id="Oval-3" fill="#4B285B"></path>
                                <path d="M6.6560686,3.95 L9.7921746,3.95 C10.330725,4.10426489 10.6000002,4.49801489 10.6000002,5.13125 C10.6000002,5.76448511 10.330725,6.15823511 9.7921746,6.3125 L6.81503702,6.3125 C6.42902502,7.30199274 5.49411628,8 4.40209103,8 C2.96499583,8 1.8,6.79116882 1.8,5.3 C1.8,3.80883118 2.96499583,2.6 4.40209103,2.6 C5.36523206,2.6 6.20615481,3.14296815 6.6560686,3.95 Z" id="Combined-Shape" fill="#FFFFFF" transform="translate(6.200000, 5.300000) rotate(-240.000000) translate(-6.200000, -5.300000) "></path>
                                <path d="M7.01395264,5.92948644 L5.99690801,7.6910594 C5.77945031,7.85776888 5.48414352,7.8334028 5.11098766,7.61796117 C4.7378318,7.40251953 4.56907677,7.15895939 4.60472256,6.88728075 L5.53986355,5.26756905 C5.10358545,4.82950258 4.83173261,4.21144611 4.83173261,3.52652649 C4.83173261,2.11203217 9.39999967,1.93942746 9.39999967,3.52652649 C9.39999967,4.85494327 8.37735825,5.93183784 7.11586614,5.93183784 C7.08171473,5.93183784 7.04773838,5.93104858 7.01395264,5.92948644 Z" id="Combined-Shape" fill="#4B285B"></path>
                            </g>
                        </g>
                    </g>
                </g>
            </g>
        </g>
    </g>
</svg>
